<svg id="Audiozic_logo" data-name="Audiozic logo" xmlns="http://www.w3.org/2000/svg" width="157.067" height="31" viewBox="0 0 157.067 31">
  <text id="Audiozic" transform="translate(48.067 23)" fill="#fff" font-size="22" font-family="Poppins-SemiBold, Poppins" font-weight="600" letter-spacing="0.05em"><tspan x="0" y="0">Audionia</tspan></text>
  <g id="headphone-svgrepo-com" transform="translate(0 -41.057)">
    <g id="그룹_25" data-name="그룹 25" transform="translate(0 43.057)">
      <path id="패스_9" data-name="패스 9" d="M32.144,56.558c-.069-.055-.141-.11-.216-.166a14.351,14.351,0,0,0-28.629,0q-.113.084-.216.166a7.319,7.319,0,0,0,0,11.938,10.09,10.09,0,0,0,6.135,2.2,1.575,1.575,0,0,0,1.574-1.575v-13.2a1.574,1.574,0,0,0-1.578-1.575q-.248,0-.5.016a9.4,9.4,0,0,1,17.8,0q-.254-.015-.5-.016a1.574,1.574,0,0,0-1.575,1.575v13.2A1.575,1.575,0,0,0,26.009,70.7h0a10.091,10.091,0,0,0,6.131-2.2,7.32,7.32,0,0,0,0-11.938Z" transform="translate(0 -43.057)" fill="#fff"/>
    </g>
  </g>
</svg>
